<svg xmlns="http://www.w3.org/2000/svg" viewBox="0 0 95.26 95.26"><defs><style>.cls-1{fill:#212121;}</style></defs><title>cat-logo</title><g id="Layer_2" data-name="Layer 2"><g id="Layer_1-2" data-name="Layer 1"><path class="cls-1" d="M88.9,0H6.36A6.38,6.38,0,0,0,0,6.36V17.52H3.17V38.26H0V57H3.17V77.75H0V88.9a6.37,6.37,0,0,0,6.36,6.36H88.9a6.35,6.35,0,0,0,6.36-6.36V6.36A6.37,6.37,0,0,0,88.9,0Zm4.79,88.9a4.78,4.78,0,0,1-4.79,4.79H6.36A4.8,4.8,0,0,1,1.57,88.9V79.32H3.29a1.46,1.46,0,0,0,1-.42h0a1.42,1.42,0,0,0,.42-1v-21a1.45,1.45,0,0,0-1.45-1.45H1.57V39.83H3.29a1.46,1.46,0,0,0,1-.43,1.43,1.43,0,0,0,.43-1v-21a1.43,1.43,0,0,0-.42-1,1.45,1.45,0,0,0-1-.43H1.57V6.36A4.81,4.81,0,0,1,6.36,1.57H88.9a4.8,4.8,0,0,1,4.79,4.79Z"/><path class="cls-1" d="M74.74,24.22c.58.55,1.13,1.12,1.64,1.68l1.78-1.4c-.59-.66-1.22-1.3-1.86-1.92a37.21,37.21,0,0,0-51,0,33.57,33.57,0,0,0,0,49A36.71,36.71,0,0,0,50.78,81.69a37.31,37.31,0,0,0,14-2.72A36.25,36.25,0,0,0,76.3,71.56c.65-.62,1.27-1.27,1.86-1.92l-1.78-1.41c-.51.57-1.06,1.13-1.64,1.69a33.79,33.79,0,0,1-5.86,4.48l-.74.45-.44-.75L65.89,71a1.15,1.15,0,0,0-1.56-.42,1.13,1.13,0,0,0-.41,1.56l1.73,2.94.47.82-.86.38a34.92,34.92,0,0,1-12.43,3l-.9,0V74.88a1.15,1.15,0,1,0-2.29,0v4.51l-.9,0a34.92,34.92,0,0,1-12.44-3l-.86-.38.47-.82,1.66-2.94a1.15,1.15,0,0,0-.42-1.56A1.14,1.14,0,0,0,35.6,71L33.86,74.1l-.43.75-.75-.45a33.79,33.79,0,0,1-5.86-4.48A32.73,32.73,0,0,1,23,65.52l-.56-.77.82-.47,2.63-1.58a1.14,1.14,0,0,0-1.14-2L22,62.39l-.75.44-.42-.77A30.89,30.89,0,0,1,17,49.12L17,48.21h3.89a1.14,1.14,0,0,0,0-2.28H17L17,45a31,31,0,0,1,3.78-13l.42-.76.75.43,2.65,1.51a1,1,0,0,0,.56.16,1.14,1.14,0,0,0,1-.57,1.17,1.17,0,0,0,.12-.86,1.15,1.15,0,0,0-.53-.69l-2.51-1.43-.82-.48.56-.77a33.27,33.27,0,0,1,3.84-4.39,33.79,33.79,0,0,1,5.86-4.48l.75-.46.43.76,1.61,2.78a1.15,1.15,0,0,0,1.56.42,1.18,1.18,0,0,0,.53-.69,2.43,2.43,0,0,0-.35-1.24L35.91,19l-.47-.82.86-.39a34.86,34.86,0,0,1,12.44-3l.9-.05v4.09a1.15,1.15,0,0,0,2.29,0V14.75l.9.05a34.91,34.91,0,0,1,12.44,3l.85.39-.47.82-1.6,2.63a1.08,1.08,0,0,0-.12.86,1.13,1.13,0,0,0,2.08.28L67.7,20l.44-.76.74.46A33.79,33.79,0,0,1,74.74,24.22Z"/><path class="cls-1" d="M67.7,20,66,22.81a1.14,1.14,0,0,1-2.08-.28,1.08,1.08,0,0,1,.12-.86L65.65,19l.47-.82-.85-.39a34.91,34.91,0,0,0-12.44-3l-.9-.05v4.09a1.15,1.15,0,0,1-2.29,0V14.75l-.9.05a34.86,34.86,0,0,0-12.44,3l-.86.39.47.82,1.3,2.27a2.43,2.43,0,0,1,.35,1.24,1.18,1.18,0,0,1-.53.69,1.15,1.15,0,0,1-1.56-.42L33.86,20l-.43-.76-.75.46a33.79,33.79,0,0,0-5.86,4.48A33.27,33.27,0,0,0,23,28.61l-.56.77.82.48,2.51,1.43a1.15,1.15,0,0,1,.53.69,1.17,1.17,0,0,1-.12.86,1.14,1.14,0,0,1-1,.57,1,1,0,0,1-.56-.16L22,31.74l-.75-.43-.42.76A31,31,0,0,0,17,45l-.06.91h3.89a1.14,1.14,0,0,1,0,2.28H17l.06.91a30.89,30.89,0,0,0,3.78,12.94l.42.77.75-.44,2.77-1.66a1.14,1.14,0,0,1,1.14,2l-2.63,1.58-.82.47.56.77a32.73,32.73,0,0,0,3.84,4.4,33.79,33.79,0,0,0,5.86,4.48l.75.45.43-.75L35.6,71a1.14,1.14,0,0,1,1.55-.41,1.15,1.15,0,0,1,.42,1.56L35.91,75.1l-.47.82.86.38a34.92,34.92,0,0,0,12.44,3l.9,0V74.88a1.15,1.15,0,1,1,2.29,0v4.51l.9,0a34.92,34.92,0,0,0,12.43-3l.86-.38-.47-.82-1.73-2.94a1.13,1.13,0,0,1,1-1.71,1.17,1.17,0,0,1,1,.57L67.7,74.1l.44.75.74-.45a33.79,33.79,0,0,0,5.86-4.48c.58-.56,1.13-1.12,1.64-1.69l1.78,1.41c-.59.65-1.21,1.3-1.86,1.92A36.25,36.25,0,0,1,64.83,79a37.31,37.31,0,0,1-14,2.72A36.71,36.71,0,0,1,25.26,71.56a33.57,33.57,0,0,1,0-49,37.21,37.21,0,0,1,51,0c.64.62,1.27,1.26,1.86,1.92l-1.78,1.4c-.51-.56-1.06-1.13-1.64-1.68a33.79,33.79,0,0,0-5.86-4.48l-.74-.46Z"/><path class="cls-1" d="M65.39,58.48a17.49,17.49,0,0,0,0-22.83c-.41-.48-.85-.94-1.3-1.38a19.4,19.4,0,0,0-26.61,0,17.54,17.54,0,0,0,0,25.6,19.39,19.39,0,0,0,26.6,0C64.54,59.43,65,59,65.39,58.48Zm-1.85-1.33c-.34.39-.68.76-1,1.08a16.54,16.54,0,0,1-2,1.61l-.76.53-.47-.8-.25-.43a1.14,1.14,0,0,0-1-.57,1,1,0,0,0-.57.16,1.09,1.09,0,0,0-.53.69,1.12,1.12,0,0,0,.11.86l.17.28.5.87-.94.36a17.57,17.57,0,0,1-3.94,1l-1,.11V61.42a1.15,1.15,0,0,0-2.29,0v1.43l-1-.11a17,17,0,0,1-3.94-1l-.94-.36.5-.87.19-.28a1.12,1.12,0,0,0,.11-.86,1.15,1.15,0,0,0-.53-.69,1.12,1.12,0,0,0-.56-.15,1.15,1.15,0,0,0-1,.57l-.27.42-.46.81L41,59.85a16.9,16.9,0,0,1-2-1.62A15.86,15.86,0,0,1,37.88,57l-.66-.78.89-.51.08-.05a1.14,1.14,0,0,0-.58-2.12,1.18,1.18,0,0,0-.57.15l-.22.14-.81.47-.39-.86a15.19,15.19,0,0,1-1.25-4.25l-.14-1h1a1.14,1.14,0,0,0,0-2.28h-1l.14-1a15.39,15.39,0,0,1,1.25-4.25l.39-.85.81.47.07,0a1.2,1.2,0,0,0,.56.15,1.17,1.17,0,0,0,1-.57A1.13,1.13,0,0,0,38,38.39l.09,0-.88-.51.66-.78A15.52,15.52,0,0,1,39,35.91a17.16,17.16,0,0,1,2-1.62l.76-.53.46.81.08.11a1.15,1.15,0,0,0,1,.57,1.09,1.09,0,0,0,.56-.15,1.13,1.13,0,0,0,.42-1.55v0l-.5-.87.94-.36a17,17,0,0,1,3.94-1l1-.11v1a1.15,1.15,0,0,0,2.29,0v-1l1,.11a17,17,0,0,1,3.94,1l1,.36-.51.87,0,0a1.12,1.12,0,0,0-.11.86,1.1,1.1,0,0,0,.52.69,1.16,1.16,0,0,0,.57.15,1.14,1.14,0,0,0,1-.57l.07-.11.46-.81.77.53a17.06,17.06,0,0,1,2,1.62,13.74,13.74,0,0,1,1,1.09l.07.07.05.07.69.78-.9.52.08,0a1.06,1.06,0,0,0-.46.5,1.12,1.12,0,0,0,1,1.61,1.12,1.12,0,0,0,.56-.15l.07,0,.81-.47.39.85A14.74,14.74,0,0,1,67.19,45l.14,1h-1a1.14,1.14,0,0,0,0,2.28h1l-.14,1A15,15,0,0,1,66,53.43l-.39.86-.81-.47-.26-.16a1.16,1.16,0,0,0-.57-.15,1.12,1.12,0,0,0-1,1.61,1.09,1.09,0,0,0,.46.51l.11.07.87.5-.64.78Z"/></g></g></svg>